<svg xmlns="http://www.w3.org/2000/svg" xmlns:xlink="http://www.w3.org/1999/xlink" width="500" zoomAndPan="magnify" viewBox="0 0 375 374.999991" height="500" preserveAspectRatio="xMidYMid meet" version="1.0"><defs><clipPath id="01e6afec6b"><path d="M 55.5 -0.0703125 L 319.5 -0.0703125 C 350.152344 -0.0703125 375 24.777344 375 55.429688 L 375 320.125 C 375 350.777344 350.152344 375.625 319.5 375.625 L 55.5 375.625 C 24.847656 375.625 0 350.777344 0 320.125 L 0 55.429688 C 0 24.777344 24.847656 -0.0703125 55.5 -0.0703125 Z M 55.5 -0.0703125 " clip-rule="nonzero"/></clipPath><clipPath id="35d88ec12c"><path d="M 0 0 L 375 0 L 375 374.929688 L 0 374.929688 Z M 0 0 " clip-rule="nonzero"/></clipPath><clipPath id="3c8edc3d5e"><path d="M 55.5 -0.0703125 L 319.5 -0.0703125 C 350.152344 -0.0703125 375 24.777344 375 55.429688 L 375 320.125 C 375 350.777344 350.152344 375.625 319.5 375.625 L 55.5 375.625 C 24.847656 375.625 0 350.777344 0 320.125 L 0 55.429688 C 0 24.777344 24.847656 -0.0703125 55.5 -0.0703125 Z M 55.5 -0.0703125 " clip-rule="nonzero"/></clipPath><linearGradient x1="-0.093001" gradientTransform="matrix(1.464844, 0, 0, 1.464844, 0.0000045, -0.0732399)" y1="0.142999" x2="255.882813" gradientUnits="userSpaceOnUse" y2="256.119812" id="eaba07cc0e"><stop stop-opacity="1" stop-color="rgb(14.122009%, 0%, 100%)" offset="0"/><stop stop-opacity="1" stop-color="rgb(14.250183%, 0%, 100%)" offset="0.0078125"/><stop stop-opacity="1" stop-color="rgb(14.508057%, 0%, 100%)" offset="0.015625"/><stop stop-opacity="1" stop-color="rgb(14.764404%, 0%, 100%)" offset="0.0234375"/><stop stop-opacity="1" stop-color="rgb(15.022278%, 0%, 100%)" offset="0.03125"/><stop stop-opacity="1" stop-color="rgb(15.278625%, 0%, 100%)" offset="0.0390625"/><stop stop-opacity="1" stop-color="rgb(15.536499%, 0%, 100%)" offset="0.046875"/><stop stop-opacity="1" stop-color="rgb(15.792847%, 0%, 100%)" offset="0.0546875"/><stop stop-opacity="1" stop-color="rgb(16.05072%, 0%, 100%)" offset="0.0625"/><stop stop-opacity="1" stop-color="rgb(16.307068%, 0%, 100%)" offset="0.0703125"/><stop stop-opacity="1" stop-color="rgb(16.564941%, 0%, 100%)" offset="0.078125"/><stop stop-opacity="1" stop-color="rgb(16.821289%, 0%, 100%)" offset="0.0859375"/><stop stop-opacity="1" stop-color="rgb(17.079163%, 0%, 100%)" offset="0.09375"/><stop stop-opacity="1" stop-color="rgb(17.33551%, 0%, 100%)" offset="0.101562"/><stop stop-opacity="1" stop-color="rgb(17.593384%, 0%, 100%)" offset="0.109375"/><stop stop-opacity="1" stop-color="rgb(17.849731%, 0%, 100%)" offset="0.117187"/><stop stop-opacity="1" stop-color="rgb(18.107605%, 0%, 100%)" offset="0.125"/><stop stop-opacity="1" stop-color="rgb(18.363953%, 0%, 100%)" offset="0.132812"/><stop stop-opacity="1" stop-color="rgb(18.6203%, 0%, 100%)" offset="0.140625"/><stop stop-opacity="1" stop-color="rgb(18.878174%, 0%, 100%)" offset="0.148438"/><stop stop-opacity="1" stop-color="rgb(19.134521%, 0%, 100%)" offset="0.15625"/><stop stop-opacity="1" stop-color="rgb(19.392395%, 0%, 100%)" offset="0.164063"/><stop stop-opacity="1" stop-color="rgb(19.648743%, 0%, 100%)" offset="0.171875"/><stop stop-opacity="1" stop-color="rgb(19.906616%, 0%, 100%)" offset="0.179688"/><stop stop-opacity="1" stop-color="rgb(20.162964%, 0%, 100%)" offset="0.1875"/><stop stop-opacity="1" stop-color="rgb(20.420837%, 0%, 100%)" offset="0.195312"/><stop stop-opacity="1" stop-color="rgb(20.677185%, 0%, 100%)" offset="0.203125"/><stop stop-opacity="1" stop-color="rgb(20.935059%, 0%, 100%)" offset="0.210938"/><stop stop-opacity="1" stop-color="rgb(21.191406%, 0%, 100%)" offset="0.21875"/><stop stop-opacity="1" stop-color="rgb(21.44928%, 0%, 100%)" offset="0.226562"/><stop stop-opacity="1" stop-color="rgb(21.705627%, 0%, 100%)" offset="0.234375"/><stop stop-opacity="1" stop-color="rgb(21.963501%, 0%, 100%)" offset="0.242188"/><stop stop-opacity="1" stop-color="rgb(22.219849%, 0%, 100%)" offset="0.25"/><stop stop-opacity="1" stop-color="rgb(22.477722%, 0%, 100%)" offset="0.257812"/><stop stop-opacity="1" stop-color="rgb(22.73407%, 0%, 100%)" offset="0.265625"/><stop stop-opacity="1" stop-color="rgb(22.991943%, 0%, 100%)" offset="0.273437"/><stop stop-opacity="1" stop-color="rgb(23.248291%, 0%, 100%)" offset="0.28125"/><stop stop-opacity="1" stop-color="rgb(23.506165%, 0%, 100%)" offset="0.289062"/><stop stop-opacity="1" stop-color="rgb(23.762512%, 0%, 100%)" offset="0.296875"/><stop stop-opacity="1" stop-color="rgb(24.020386%, 0%, 100%)" offset="0.304688"/><stop stop-opacity="1" stop-color="rgb(24.276733%, 0%, 100%)" offset="0.3125"/><stop stop-opacity="1" stop-color="rgb(24.534607%, 0%, 100%)" offset="0.320312"/><stop stop-opacity="1" stop-color="rgb(24.790955%, 0%, 100%)" offset="0.328125"/><stop stop-opacity="1" stop-color="rgb(25.048828%, 0%, 100%)" offset="0.335938"/><stop stop-opacity="1" stop-color="rgb(25.305176%, 0%, 100%)" offset="0.34375"/><stop stop-opacity="1" stop-color="rgb(25.561523%, 0%, 100%)" offset="0.351562"/><stop stop-opacity="1" stop-color="rgb(25.819397%, 0%, 100%)" offset="0.359375"/><stop stop-opacity="1" stop-color="rgb(26.075745%, 0%, 100%)" offset="0.367187"/><stop stop-opacity="1" stop-color="rgb(26.333618%, 0%, 100%)" offset="0.375"/><stop stop-opacity="1" stop-color="rgb(26.589966%, 0%, 100%)" offset="0.382812"/><stop stop-opacity="1" stop-color="rgb(26.847839%, 0%, 100%)" offset="0.390625"/><stop stop-opacity="1" stop-color="rgb(27.104187%, 0%, 100%)" offset="0.398437"/><stop stop-opacity="1" stop-color="rgb(27.362061%, 0%, 100%)" offset="0.40625"/><stop stop-opacity="1" stop-color="rgb(27.618408%, 0%, 100%)" offset="0.414062"/><stop stop-opacity="1" stop-color="rgb(27.876282%, 0%, 100%)" offset="0.421875"/><stop stop-opacity="1" stop-color="rgb(28.132629%, 0%, 100%)" offset="0.429688"/><stop stop-opacity="1" stop-color="rgb(28.390503%, 0%, 100%)" offset="0.4375"/><stop stop-opacity="1" stop-color="rgb(28.646851%, 0%, 100%)" offset="0.445312"/><stop stop-opacity="1" stop-color="rgb(28.904724%, 0%, 100%)" offset="0.453125"/><stop stop-opacity="1" stop-color="rgb(29.161072%, 0%, 100%)" offset="0.460937"/><stop stop-opacity="1" stop-color="rgb(29.418945%, 0%, 100%)" offset="0.46875"/><stop stop-opacity="1" stop-color="rgb(29.675293%, 0%, 100%)" offset="0.476562"/><stop stop-opacity="1" stop-color="rgb(29.933167%, 0%, 100%)" offset="0.484375"/><stop stop-opacity="1" stop-color="rgb(30.189514%, 0%, 100%)" offset="0.492187"/><stop stop-opacity="1" stop-color="rgb(30.447388%, 0%, 100%)" offset="0.499955"/><stop stop-opacity="1" stop-color="rgb(30.575562%, 0%, 100%)" offset="0.5"/><stop stop-opacity="1" stop-color="rgb(30.703735%, 0%, 100%)" offset="0.500045"/><stop stop-opacity="1" stop-color="rgb(30.833435%, 0%, 100%)" offset="0.507812"/><stop stop-opacity="1" stop-color="rgb(30.961609%, 0%, 100%)" offset="0.515625"/><stop stop-opacity="1" stop-color="rgb(31.217957%, 0%, 100%)" offset="0.523438"/><stop stop-opacity="1" stop-color="rgb(31.47583%, 0%, 100%)" offset="0.53125"/><stop stop-opacity="1" stop-color="rgb(31.732178%, 0%, 100%)" offset="0.539062"/><stop stop-opacity="1" stop-color="rgb(31.990051%, 0%, 100%)" offset="0.546875"/><stop stop-opacity="1" stop-color="rgb(32.246399%, 0%, 100%)" offset="0.554688"/><stop stop-opacity="1" stop-color="rgb(32.502747%, 0%, 100%)" offset="0.5625"/><stop stop-opacity="1" stop-color="rgb(32.76062%, 0%, 100%)" offset="0.570312"/><stop stop-opacity="1" stop-color="rgb(33.016968%, 0%, 100%)" offset="0.578125"/><stop stop-opacity="1" stop-color="rgb(33.274841%, 0%, 100%)" offset="0.585938"/><stop stop-opacity="1" stop-color="rgb(33.531189%, 0%, 100%)" offset="0.59375"/><stop stop-opacity="1" stop-color="rgb(33.789062%, 0%, 100%)" offset="0.601562"/><stop stop-opacity="1" stop-color="rgb(34.04541%, 0%, 100%)" offset="0.609375"/><stop stop-opacity="1" stop-color="rgb(34.303284%, 0%, 100%)" offset="0.617188"/><stop stop-opacity="1" stop-color="rgb(34.559631%, 0%, 100%)" offset="0.625"/><stop stop-opacity="1" stop-color="rgb(34.817505%, 0%, 100%)" offset="0.632812"/><stop stop-opacity="1" stop-color="rgb(35.073853%, 0%, 100%)" offset="0.640625"/><stop stop-opacity="1" stop-color="rgb(35.331726%, 0%, 100%)" offset="0.648438"/><stop stop-opacity="1" stop-color="rgb(35.588074%, 0%, 100%)" offset="0.65625"/><stop stop-opacity="1" stop-color="rgb(35.845947%, 0%, 100%)" offset="0.664062"/><stop stop-opacity="1" stop-color="rgb(36.102295%, 0%, 100%)" offset="0.671875"/><stop stop-opacity="1" stop-color="rgb(36.360168%, 0%, 100%)" offset="0.679688"/><stop stop-opacity="1" stop-color="rgb(36.616516%, 0%, 100%)" offset="0.6875"/><stop stop-opacity="1" stop-color="rgb(36.87439%, 0%, 100%)" offset="0.695312"/><stop stop-opacity="1" stop-color="rgb(37.130737%, 0%, 100%)" offset="0.703125"/><stop stop-opacity="1" stop-color="rgb(37.388611%, 0%, 100%)" offset="0.710938"/><stop stop-opacity="1" stop-color="rgb(37.644958%, 0%, 100%)" offset="0.71875"/><stop stop-opacity="1" stop-color="rgb(37.902832%, 0%, 100%)" offset="0.726562"/><stop stop-opacity="1" stop-color="rgb(38.15918%, 0%, 100%)" offset="0.734375"/><stop stop-opacity="1" stop-color="rgb(38.417053%, 0%, 100%)" offset="0.742188"/><stop stop-opacity="1" stop-color="rgb(38.673401%, 0%, 100%)" offset="0.75"/><stop stop-opacity="1" stop-color="rgb(38.931274%, 0%, 100%)" offset="0.757812"/><stop stop-opacity="1" stop-color="rgb(39.187622%, 0%, 100%)" offset="0.765625"/><stop stop-opacity="1" stop-color="rgb(39.44397%, 0%, 100%)" offset="0.773438"/><stop stop-opacity="1" stop-color="rgb(39.701843%, 0%, 100%)" offset="0.78125"/><stop stop-opacity="1" stop-color="rgb(39.958191%, 0%, 100%)" offset="0.789062"/><stop stop-opacity="1" stop-color="rgb(40.216064%, 0%, 100%)" offset="0.796875"/><stop stop-opacity="1" stop-color="rgb(40.472412%, 0%, 100%)" offset="0.804688"/><stop stop-opacity="1" stop-color="rgb(40.730286%, 0%, 100%)" offset="0.8125"/><stop stop-opacity="1" stop-color="rgb(40.986633%, 0%, 100%)" offset="0.820312"/><stop stop-opacity="1" stop-color="rgb(41.244507%, 0%, 100%)" offset="0.828125"/><stop stop-opacity="1" stop-color="rgb(41.500854%, 0%, 100%)" offset="0.835938"/><stop stop-opacity="1" stop-color="rgb(41.758728%, 0%, 100%)" offset="0.84375"/><stop stop-opacity="1" stop-color="rgb(42.015076%, 0%, 100%)" offset="0.851562"/><stop stop-opacity="1" stop-color="rgb(42.272949%, 0%, 100%)" offset="0.859375"/><stop stop-opacity="1" stop-color="rgb(42.529297%, 0%, 100%)" offset="0.867188"/><stop stop-opacity="1" stop-color="rgb(42.78717%, 0%, 100%)" offset="0.875"/><stop stop-opacity="1" stop-color="rgb(43.043518%, 0%, 100%)" offset="0.882812"/><stop stop-opacity="1" stop-color="rgb(43.301392%, 0%, 100%)" offset="0.890625"/><stop stop-opacity="1" stop-color="rgb(43.557739%, 0%, 100%)" offset="0.898438"/><stop stop-opacity="1" stop-color="rgb(43.815613%, 0%, 100%)" offset="0.90625"/><stop stop-opacity="1" stop-color="rgb(44.07196%, 0%, 100%)" offset="0.914062"/><stop stop-opacity="1" stop-color="rgb(44.329834%, 0%, 100%)" offset="0.921875"/><stop stop-opacity="1" stop-color="rgb(44.586182%, 0%, 100%)" offset="0.929688"/><stop stop-opacity="1" stop-color="rgb(44.844055%, 0%, 100%)" offset="0.9375"/><stop stop-opacity="1" stop-color="rgb(45.100403%, 0%, 100%)" offset="0.945312"/><stop stop-opacity="1" stop-color="rgb(45.358276%, 0%, 100%)" offset="0.953125"/><stop stop-opacity="1" stop-color="rgb(45.614624%, 0%, 100%)" offset="0.960938"/><stop stop-opacity="1" stop-color="rgb(45.872498%, 0%, 100%)" offset="0.96875"/><stop stop-opacity="1" stop-color="rgb(46.128845%, 0%, 100%)" offset="0.976562"/><stop stop-opacity="1" stop-color="rgb(46.385193%, 0%, 100%)" offset="0.984375"/><stop stop-opacity="1" stop-color="rgb(46.643066%, 0%, 100%)" offset="0.992188"/><stop stop-opacity="1" stop-color="rgb(46.899414%, 0%, 100%)" offset="1"/></linearGradient><clipPath id="69c97d0933"><rect x="0" width="375" y="0" height="375"/></clipPath><clipPath id="e8b4b7c80f"><path d="M 0.769531 0.453125 L 180.40625 0.453125 L 180.40625 226.128906 L 0.769531 226.128906 Z M 0.769531 0.453125 " clip-rule="nonzero"/></clipPath><clipPath id="9ea0a4079f"><path d="M 5.503906 5.558594 L 176.113281 5.558594 L 176.113281 220.402344 L 5.503906 220.402344 Z M 5.503906 5.558594 " clip-rule="nonzero"/></clipPath><clipPath id="dfbbf698d2"><path d="M 9.828125 11.339844 L 172 11.339844 L 172 215.347656 L 9.828125 215.347656 Z M 9.828125 11.339844 " clip-rule="nonzero"/></clipPath><clipPath id="dc1a0d30a4"><path d="M 14.917969 17.75 L 166.570312 17.75 L 166.570312 209.121094 L 14.917969 209.121094 Z M 14.917969 17.75 " clip-rule="nonzero"/></clipPath><clipPath id="dba1096500"><rect x="0" width="181" y="0" height="227"/></clipPath></defs><rect x="-37.5" width="450" fill="#ffffff" y="-37.499999" height="449.999989" fill-opacity="1"/><rect x="-37.5" width="450" fill="#fefefe" y="-37.499999" height="449.999989" fill-opacity="1"/><g clip-path="url(#01e6afec6b)"><g transform="matrix(1, 0, 0, 1, 0, 0)"><g clip-path="url(#69c97d0933)"><g clip-path="url(#35d88ec12c)"><g clip-path="url(#3c8edc3d5e)"><path fill="url(#eaba07cc0e)" d="M 0 0 L 0 374.929688 L 375 374.929688 L 375 0 Z M 0 0 " fill-rule="nonzero"/></g></g></g></g></g><g transform="matrix(1, 0, 0, 1, 97, 74)"><g clip-path="url(#dba1096500)"><g clip-path="url(#e8b4b7c80f)"><path fill="#ffffff" d="M 176.605469 28.855469 C 161.550781 27.992188 146.640625 25.226562 132.292969 20.636719 C 114.945312 15.085938 102.664062 7.75 92.511719 1.3125 C 91.28125 0.535156 89.710938 0.535156 88.480469 1.3125 C 78.332031 7.75 66.046875 15.085938 48.699219 20.636719 C 34.351562 25.226562 19.441406 27.992188 4.386719 28.855469 C 2.351562 28.96875 0.777344 30.6875 0.84375 32.730469 L 3.855469 126.785156 C 4.4375 145.058594 10.042969 162.308594 20.054688 176.664062 C 23.992188 182.308594 28.414062 187.671875 33.199219 192.613281 C 47.957031 207.851562 66.855469 219.164062 89.371094 226.238281 C 89.734375 226.355469 90.117188 226.414062 90.496094 226.414062 C 90.875 226.414062 91.257812 226.355469 91.625 226.238281 C 114.136719 219.164062 133.035156 207.851562 147.796875 192.613281 C 152.582031 187.671875 157 182.304688 160.9375 176.664062 C 170.953125 162.308594 176.554688 145.058594 177.140625 126.785156 L 180.148438 32.726562 C 180.214844 30.6875 178.644531 28.96875 176.605469 28.855469 Z M 169.621094 126.546875 C 169.082031 143.363281 163.945312 159.203125 154.765625 172.359375 C 151.058594 177.675781 146.894531 182.730469 142.394531 187.378906 C 128.761719 201.457031 111.304688 211.988281 90.496094 218.703125 C 69.6875 211.988281 52.234375 201.457031 38.601562 187.382812 C 34.097656 182.730469 29.933594 177.675781 26.226562 172.359375 C 17.046875 159.203125 11.914062 143.363281 11.371094 126.546875 L 8.480469 36.117188 C 22.921875 35.007812 37.207031 32.214844 50.992188 27.800781 C 68.046875 22.347656 80.339844 15.304688 90.496094 8.9375 C 100.65625 15.304688 112.949219 22.347656 130 27.800781 C 143.789062 32.214844 158.070312 35.007812 172.515625 36.117188 Z M 169.621094 126.546875 " fill-opacity="1" fill-rule="nonzero"/></g><g clip-path="url(#9ea0a4079f)"><path fill="#ffffff" d="M 172.882812 32.59375 C 158.550781 31.773438 144.359375 29.140625 130.703125 24.769531 C 114.191406 19.488281 102.496094 12.503906 92.835938 6.375 C 91.664062 5.636719 90.167969 5.636719 88.996094 6.375 C 79.335938 12.503906 67.644531 19.488281 51.128906 24.769531 C 37.472656 29.140625 23.28125 31.773438 8.949219 32.59375 C 7.007812 32.703125 5.511719 34.339844 5.574219 36.28125 L 8.441406 125.816406 C 8.996094 143.210938 14.332031 159.628906 23.863281 173.292969 C 27.609375 178.664062 31.820312 183.773438 36.375 188.476562 C 50.421875 202.980469 68.410156 213.75 89.84375 220.484375 C 90.191406 220.59375 90.554688 220.648438 90.917969 220.648438 C 91.277344 220.648438 91.640625 220.59375 91.988281 220.484375 C 113.421875 213.75 131.410156 202.980469 145.457031 188.472656 C 150.011719 183.773438 154.222656 178.664062 157.96875 173.292969 C 167.5 159.628906 172.835938 143.210938 173.390625 125.816406 L 176.257812 36.28125 C 176.320312 34.339844 174.824219 32.703125 172.882812 32.59375 Z M 166.234375 125.585938 C 165.71875 141.59375 160.832031 156.671875 152.09375 169.195312 C 148.566406 174.253906 144.601562 179.066406 140.316406 183.492188 C 127.339844 196.894531 110.722656 206.921875 90.917969 213.3125 C 71.109375 206.921875 54.492188 196.894531 41.515625 183.496094 C 37.230469 179.066406 33.265625 174.253906 29.738281 169.199219 C 21 156.671875 16.113281 141.59375 15.597656 125.589844 L 12.84375 39.507812 C 26.59375 38.449219 40.1875 35.792969 53.3125 31.59375 C 69.546875 26.398438 81.246094 19.695312 90.917969 13.632812 C 100.585938 19.695312 112.289062 26.398438 128.519531 31.59375 C 141.644531 35.792969 155.238281 38.449219 168.988281 39.507812 Z M 166.234375 125.585938 " fill-opacity="1" fill-rule="nonzero"/></g><g clip-path="url(#dfbbf698d2)"><path fill="#ffffff" d="M 168.734375 37.007812 C 155.128906 36.230469 141.65625 33.730469 128.6875 29.582031 C 113.011719 24.566406 101.910156 17.9375 92.738281 12.117188 C 91.625 11.414062 90.207031 11.414062 89.09375 12.117188 C 79.921875 17.933594 68.820312 24.566406 53.144531 29.582031 C 40.175781 33.730469 26.703125 36.230469 13.097656 37.007812 C 11.257812 37.113281 9.835938 38.664062 9.894531 40.507812 L 12.613281 125.511719 C 13.144531 142.023438 18.207031 157.613281 27.257812 170.585938 C 30.816406 175.6875 34.808594 180.535156 39.132812 185 C 52.472656 198.769531 69.550781 208.996094 89.898438 215.386719 C 90.226562 215.492188 90.574219 215.546875 90.914062 215.546875 C 91.257812 215.546875 91.605469 215.492188 91.933594 215.386719 C 112.28125 208.996094 129.359375 198.769531 142.699219 185 C 147.023438 180.535156 151.015625 175.683594 154.574219 170.585938 C 163.625 157.609375 168.6875 142.023438 169.21875 125.511719 L 171.9375 40.507812 C 171.996094 38.667969 170.574219 37.113281 168.734375 37.007812 Z M 162.421875 125.292969 C 161.933594 140.488281 157.292969 154.804688 148.996094 166.695312 C 145.648438 171.5 141.886719 176.066406 137.816406 180.269531 C 125.496094 192.992188 109.71875 202.511719 90.914062 208.578125 C 72.113281 202.511719 56.335938 192.992188 44.015625 180.273438 C 39.945312 176.066406 36.183594 171.5 32.832031 166.695312 C 24.539062 154.804688 19.898438 140.488281 19.410156 125.296875 L 16.796875 43.570312 C 29.847656 42.566406 42.753906 40.042969 55.214844 36.054688 C 70.625 31.125 81.738281 24.761719 90.914062 19.007812 C 100.09375 24.761719 111.207031 31.125 126.617188 36.054688 C 139.078125 40.042969 151.984375 42.566406 165.035156 43.570312 Z M 162.421875 125.292969 " fill-opacity="1" fill-rule="nonzero"/></g><g clip-path="url(#dc1a0d30a4)"><path fill="#ffffff" d="M 163.84375 41.8125 C 151.09375 41.082031 138.464844 38.738281 126.3125 34.851562 C 111.621094 30.148438 101.214844 23.9375 92.621094 18.484375 C 91.578125 17.824219 90.246094 17.824219 89.207031 18.484375 C 80.609375 23.9375 70.203125 30.148438 55.511719 34.851562 C 43.359375 38.738281 30.730469 41.082031 17.980469 41.8125 C 16.253906 41.910156 14.921875 43.363281 14.980469 45.09375 L 17.527344 124.757812 C 18.023438 140.234375 22.769531 154.839844 31.25 167.003906 C 34.585938 171.78125 38.328125 176.324219 42.382812 180.511719 C 54.882812 193.414062 70.890625 203 89.957031 208.988281 C 90.265625 209.085938 90.589844 209.136719 90.914062 209.136719 C 91.234375 209.136719 91.558594 209.085938 91.867188 208.988281 C 110.9375 202.996094 126.941406 193.414062 139.441406 180.507812 C 143.496094 176.324219 147.238281 171.78125 150.574219 167 C 159.054688 154.839844 163.800781 140.234375 164.296875 124.757812 L 166.847656 45.09375 C 166.902344 43.363281 165.570312 41.910156 163.84375 41.8125 Z M 157.929688 124.554688 C 157.46875 138.796875 153.121094 152.210938 145.347656 163.355469 C 142.207031 167.855469 138.679688 172.136719 134.867188 176.078125 C 123.320312 188 108.535156 196.921875 90.914062 202.609375 C 73.289062 196.921875 58.503906 188 46.957031 176.078125 C 43.144531 172.136719 39.617188 167.855469 36.476562 163.355469 C 28.703125 152.210938 24.355469 138.796875 23.894531 124.554688 L 21.445312 47.964844 C 33.679688 47.023438 45.777344 44.65625 57.453125 40.917969 C 71.898438 36.296875 82.308594 30.335938 90.914062 24.941406 C 99.515625 30.335938 109.929688 36.296875 124.371094 40.917969 C 136.050781 44.65625 148.144531 47.019531 160.378906 47.964844 Z M 157.929688 124.554688 " fill-opacity="1" fill-rule="nonzero"/></g></g></g></svg>